PathFileType	4	(X/Y/Z)	Patient4_TMGait_0pt2_01_left_01.trc.trc
DataRate	CameraRate	NumFrames	NumMarkers	Units	OrigDataRate	OrigDataStartFrame	OrigNumFrames
45.016077170418	45.016077170418	4	33	mm	45.016077170418	18	       141
Frame#	Time	Sacral			L.Shoulder			Chest			R.Shoulder			Neck			R.ASIS			L.ASIS			R.Thigh.Superior			R.Thigh.Lateral			R.Thigh.Inferior			R.Patella			L.Thigh.Superior			L.Thigh.Lateral			L.Thigh.Inferior			L.Patella			L.Shank.Superior			L.Shank.Lateral			L.Shank.Inferior			R.Shank.Superior			R.Shank.Lateral			R.Shank.Inferior			R.Heel			R.Midfoot.Superior			R.Midfoot.Lateral			R.Toe			L.Heel			L.Midfoot.Lateral			L.Midfoot.Superior			L.Toe			L.Elbow			L.Wrist			R.Elbow			R.Wrist			
		X1	Y1	Z1	X2	Y2	Z2	X3	Y3	Z3	X4	Y4	Z4	X5	Y5	Z5	X6	Y6	Z6	X7	Y7	Z7	X8	Y8	Z8	X9	Y9	Z9	X10	Y10	Z10	X11	Y11	Z11	X12	Y12	Z12	X13	Y13	Z13	X14	Y14	Z14	X15	Y15	Z15	X16	Y16	Z16	X17	Y17	Z17	X18	Y18	Z18	X19	Y19	Z19	X20	Y20	Z20	X21	Y21	Z21	X22	Y22	Z22	X23	Y23	Z23	X24	Y24	Z24	X25	Y25	Z25	X26	Y26	Z26	X27	Y27	Z27	X28	Y28	Z28	X29	Y29	Z29	X30	Y30	Z30	X31	Y31	Z31	X32	Y32	Z32	X33	Y33	Z33	

18	1.517642857143	855.679620782429	1003.685447351744	590.798285683639	993.257689615787	1428.248041480400	377.902891737564	1127.813680978255	1361.420011925090	514.897375904913	1083.124331656877	1438.056410345090	700.626858740789	1006.824467001745	1489.520197067421	533.333656950961	1098.892880065548	929.794815472853	665.784947280118	1041.188157158762	961.951187265703	398.272580975894	1110.470105066516	722.423198003462	620.317646341293	1024.826400727986	615.621291427361	683.334660988909	1082.617394821115	561.963312592851	591.232423596881	1070.937973563820	470.784310055930	593.082638287735	1121.438591842047	773.257650067668	429.891615197866	1070.940990558559	648.220536681427	349.965549417405	1166.525356180116	583.291838165485	414.671605288861	1187.832007807759	509.207796068042	403.900860948696	1152.276175959760	437.106500721295	388.463262645512	1053.904105052227	332.939854089720	332.008829610339	1112.059794049807	211.629871786549	378.600810762101	1025.334197353735	387.472265466676	598.961628829062	941.689472833667	294.007673399113	661.068738851234	958.990162916580	198.034448958239	590.647044981767	797.881244280740	46.693726125551	561.810859690502	970.205228359159	95.481188213311	595.482588637489	881.192183783412	38.108845887706	635.664817621354	1089.366658557571	39.872026334029	625.370189236095	984.585572766506	56.877982954929	410.378344681909	1056.068352488411	50.635032978970	328.269274069645	1143.692857513396	108.511796948696	350.293717082465	1266.286259947929	52.304907190535	316.791100230463	845.593829722325	1104.424829917311	306.517221332967	805.110947204070	851.056289175989	362.941761915716	1248.013349317549	1142.603098518014	815.825902966629	1483.562898574835	1188.107889928318	729.250672068793	
19	1.539857142857	855.558826192670	1004.811418599461	590.340060749878	993.240181963250	1428.796251594824	376.644415645738	1128.888016862053	1361.073671153942	512.185456369525	1086.432248803895	1437.968628322266	698.253640753015	1008.561361721335	1489.776928202313	531.886781122322	1098.920864753922	929.316064292917	663.053724805027	1039.144720164325	962.262425376065	395.852408387294	1107.976409688611	721.763191235000	617.969478955830	1021.814612266293	615.889728930700	682.179620162254	1078.272276189538	561.495416885406	589.841032300221	1065.846689014706	470.921157406339	592.158408954093	1117.067661059014	771.700906908790	425.748015362003	1062.937976425324	647.207385599494	347.094885134259	1158.637076117571	581.593660988743	410.398001464924	1180.031327655686	509.838397256257	400.962173032778	1148.404911344059	437.664374985564	386.154180820492	1056.663790199282	327.347813241354	328.910046644909	1121.343340566911	209.438871762301	376.997893214392	1020.552827570914	387.640553950511	598.361495255345	937.048532824502	294.260492709582	660.798194487759	954.370690676404	198.165465189122	590.506814246499	793.371426613490	46.634000591834	561.921099302317	965.644864600362	95.386214414818	595.350984544825	876.689729482288	38.075513702787	635.718936960875	1084.853012742562	39.867357030340	625.368853451851	1001.370071072038	49.163737086197	407.914063529796	1074.788173970350	44.411191459585	327.271457494390	1159.852504649926	106.099213717446	350.222610832486	1285.499491686355	54.100462172094	320.127401220769	841.945579656374	1106.905584593735	306.677068740668	797.787081193329	854.186679158582	363.636178751950	1257.607321326040	1146.241865417163	809.658714406682	1488.441090777076	1204.007626743103	718.688817217476	
20	1.562071428571	855.662297772207	1005.680532221714	589.480010448719	993.499283550505	1429.086549448056	374.936749325877	1130.055101398741	1360.590332877916	509.235093285719	1089.526957988459	1437.725172886909	695.565458983655	1010.314718744696	1489.869038284411	529.975882770965	1099.170271125467	928.781460555376	660.232581988459	1037.506997387838	962.297681296781	393.290474987145	1105.799293422922	721.046058209324	615.543985000756	1019.077388275864	616.080856616125	680.876479761128	1074.257575864844	560.956085338259	588.364802925167	1061.055725116528	470.955928965571	591.123485469374	1113.231726593185	769.930874087159	421.203769536147	1055.244926078911	645.871898311011	344.222997410935	1151.401591368754	579.732071073272	405.878281344973	1172.515340314060	510.028631699968	397.969915603920	1144.409784438939	437.924410305238	383.848682808904	1058.500889405736	322.584150163282	326.248129401513	1128.638626621808	207.916861301648	375.715100292658	1015.995799330110	387.718819748865	597.662637675223	932.578631273857	294.500379096312	660.504052106649	949.842336455874	198.257223664148	590.341578707607	788.849242384713	46.596478425529	562.025933356090	961.100861901280	95.309746959575	595.245769374007	872.185032025780	38.040393110127	635.780001168573	1080.341703336337	39.856874152936	625.366409106870	1015.108342533539	43.751252372260	406.147023302672	1090.058386613105	40.002838187259	326.780160269202	1172.995041118541	104.408837285901	350.538582595086	1300.763626433434	55.528591271989	323.478925458578	839.389034739948	1108.751767634508	306.007748954974	792.138429893749	856.503586532390	362.894204562435	1266.053679974441	1149.268318226564	803.305899032690	1492.074122895167	1217.636589626850	708.484481980534	
21	1.584285714286	856.001912371610	1006.307359287251	588.181047379247	994.023274519225	1429.147832291973	372.765815544252	1131.310540441401	1360.004312998919	506.039743473984	1092.391205277895	1437.354887372251	692.565528568459	1012.065939804265	1489.817503793483	527.601328457160	1099.651549805186	928.213221390759	657.316683241404	1036.322083768314	962.089023781039	390.589279459323	1103.978882979875	720.284928623936	613.061004803860	1016.641991247951	616.207641737966	679.422315395078	1070.630902746417	560.359184469190	586.813214670896	1056.620496147544	470.888069850928	589.979363285520	1110.072738115581	768.064208564458	416.445398046200	1048.237481997817	644.302625164823	341.463364613153	1145.106377408388	577.830433501982	401.373897928369	1165.585396722632	509.803669696190	395.102644254941	1140.515448262159	437.859817551868	381.646395202949	1059.411032316677	318.653037095808	324.089454336755	1133.829974614428	206.871322365472	374.775865349369	1011.709160326060	387.718595528007	596.870681451966	928.307858806833	294.750233572507	660.193888772013	945.427648992370	198.326714864282	590.162595605265	784.325321242959	46.617713604271	562.138442627809	956.591251730710	95.263351760788	595.186928700314	867.686872533128	38.016803459379	635.854664279465	1075.838512778073	39.833050138243	625.363837923901	1025.433140693367	40.274620598532	405.057577410067	1101.505633406313	37.175092366927	326.696087416511	1182.833871002532	103.270884266504	351.167833404393	1311.921927700988	56.465589607408	326.554753926645	837.875435750126	1110.000470272407	304.447651349543	788.138899306062	858.048638300278	360.746952187644	1273.368128201908	1151.667033970874	796.844689857175	1494.710634235424	1228.994081159834	698.661305850120	
